<?xml version="1.0" standalone="no"?>
<!DOCTYPE svg PUBLIC "-//W3C//DTD SVG 20010904//EN"
 "http://www.w3.org/TR/2001/REC-SVG-20010904/DTD/svg10.dtd">
<svg version="1.0" xmlns="http://www.w3.org/2000/svg"
 width="1067.000000pt" height="1067.000000pt" viewBox="0 0 1067.000000 1067.000000"
 preserveAspectRatio="xMidYMid meet">
<metadata>
Created by potrace 1.14, written by Peter Selinger 2001-2017
</metadata>
<g transform="translate(0.000000,1067.000000) scale(0.100000,-0.100000)"
fill="#000000" stroke="none">
<path d="M1863 10135 l-533 -533 0 -1334 0 -1333 50 -100 c197 -390 215 -877
50 -1290 -17 -44 -48 -110 -67 -147 l-35 -67 7 -188 c6 -188 8 -225 20 -338
15 -151 21 -196 30 -245 2 -14 7 -46 10 -71 3 -25 14 -95 26 -155 25 -137 28
-149 40 -204 6 -25 12 -52 14 -60 52 -244 174 -618 297 -910 65 -154 198 -425
257 -525 20 -33 36 -62 36 -65 0 -3 8 -16 17 -30 9 -14 46 -74 83 -134 272
-444 647 -887 1045 -1236 47 -41 87 -77 90 -80 8 -9 201 -163 245 -195 22 -16
45 -33 50 -37 67 -54 303 -211 436 -291 205 -123 483 -265 672 -343 34 -14 76
-31 92 -39 62 -27 304 -115 418 -150 l117 -37 73 22 c75 22 287 95 322 109 11
5 36 15 55 22 32 11 97 38 145 59 11 5 54 23 95 41 114 48 371 178 505 254
884 506 1612 1240 2106 2126 116 209 275 549 334 714 9 28 23 64 31 80 7 17
38 109 69 205 102 318 182 676 221 985 3 22 7 54 9 70 4 29 10 92 20 205 3 30
8 142 12 247 l6 193 -48 96 c-81 165 -140 367 -159 551 -7 65 -8 256 -1 303 2
19 7 58 11 85 18 152 75 331 155 488 l39 78 0 1337 0 1337 -533 533 -533 533
-92 -56 c-116 -70 -228 -126 -377 -190 -144 -62 -437 -141 -605 -164 -41 -5
-95 -13 -120 -16 -73 -10 -398 -13 -490 -4 -186 17 -252 28 -408 65 -265 64
-537 177 -768 320 l-72 45 -91 -56 c-331 -202 -752 -340 -1131 -373 -129 -11
-453 -7 -555 7 -404 54 -735 168 -1054 360 -55 34 -102 61 -103 61 -2 -1 -243
-241 -535 -535z"/>
</g>
</svg>
