<svg width="1920" height="1080" viewBox="0 0 1920 1080" fill="none" xmlns="http://www.w3.org/2000/svg">
<path d="M1920 0H0V1080H1920V0Z" fill="#E4E4E4"/>
<path fill-rule="evenodd" clip-rule="evenodd" d="M800 380V532.727H887.443L888.537 526.768C893.949 497.351 917.351 473.949 946.769 468.537L952.727 467.443V380H800ZM960 598.182C992.133 598.182 1018.18 572.133 1018.18 540C1018.18 507.867 992.133 481.818 960 481.818C927.867 481.818 901.818 507.867 901.818 540C901.818 572.133 927.867 598.182 960 598.182ZM967.273 467.443V380H1120V532.727H1032.54L1031.45 526.769C1026.05 497.351 1002.66 473.956 973.231 468.537L967.273 467.443ZM1032.54 547.273L1031.45 553.231C1026.05 582.649 1002.66 606.044 973.231 611.463L967.273 612.557V700H1120V547.273H1032.54ZM888.537 553.231C893.949 582.649 917.351 606.051 946.768 611.463L952.727 612.557V700H800V547.273H887.443L888.537 553.231Z" fill="#C2C2C2"/>
<path fill-rule="evenodd" clip-rule="evenodd" d="M1000 516C1000 511.582 996.418 508 992 508H928C923.582 508 920 511.582 920 516V564C920 568.418 923.582 572 928 572H992C996.418 572 1000 568.418 1000 564V516ZM950 520C953.314 520 956 522.686 956 526C956 529.314 953.314 532 950 532C946.686 532 944 529.314 944 526C944 522.686 946.686 520 950 520ZM986 560C987.104 560 988 559.105 988 558V556.64C987.997 556.208 987.857 555.788 987.6 555.44L970.6 532.76C970.213 532.271 969.624 531.986 969 531.986C968.376 531.986 967.787 532.271 967.4 532.76L955.88 547.64C955.498 548.139 954.908 548.434 954.28 548.44C953.691 548.441 953.133 548.176 952.76 547.72L946.96 540.72C946.575 540.258 946.002 539.993 945.4 540C944.851 540.058 944.347 540.331 944 540.76L932.44 555.44C932.155 555.775 931.998 556.2 932 556.64V558C932 559.105 932.896 560 934 560H986Z" fill="black" fill-opacity="0.15"/>
</svg>
